<svg width="363" height="619" viewBox="0 0 363 619" fill="none" xmlns="http://www.w3.org/2000/svg">
<path d="M2.93332 3.06665L-1.52588e-05 6.13332V309.467V612.933L3.06665 615.733L6.13332 618.667H117.467H228.933L231.733 615.6L234.667 612.533V309.2V5.73332L231.6 2.93332L228.533 -1.19209e-05H117.2H5.73332L2.93332 3.06665ZM212.667 32V42L194.667 42.4C178.533 42.6667 176.4 43.0667 173.733 45.6C171.6 47.6 170.667 50 170.667 53.3333C170.667 56.6667 171.6 59.0667 173.733 61.0667C176.4 63.6 178.533 64 194.667 64.2667L212.667 64.6667V74.6667V84.6667L173.333 85.0667C135.2 85.3333 134 85.4667 131.067 88.2667C126.933 92.1333 126.933 99.8667 131.067 103.733C134 106.533 135.2 106.667 173.333 106.933L212.667 107.333V117.333V127.333L194.667 127.733C178.533 128 176.4 128.4 173.733 130.933C169.6 134.8 169.6 142.533 173.733 146.4C176.4 148.933 178.533 149.333 194.667 149.6L212.667 150V160V170L173.333 170.4C135.2 170.667 134 170.8 131.067 173.6C126.933 177.467 126.933 185.2 131.067 189.067C134 191.867 135.2 192 173.333 192.267L212.667 192.667V202.667V212.667L194.667 213.067C178.533 213.333 176.4 213.733 173.733 216.267C169.6 220.133 169.6 227.867 173.733 231.733C176.4 234.267 178.533 234.667 194.667 234.933L212.667 235.333V245.333V255.333L173.333 255.733C135.2 256 134 256.133 131.067 258.933C128.933 260.933 128 263.333 128 266.667C128 270 128.933 272.4 131.067 274.4C134 277.2 135.2 277.333 173.333 277.6L212.667 278V288V298L194.667 298.4C178.533 298.667 176.4 299.067 173.733 301.6C169.6 305.467 169.6 313.2 173.733 317.067C176.4 319.6 178.533 320 194.667 320.267L212.667 320.667V330.667V340.667L173.333 341.067C135.2 341.333 134 341.467 131.067 344.267C126.933 348.133 126.933 355.867 131.067 359.733C134 362.533 135.2 362.667 173.333 362.933L212.667 363.333V373.333V383.333L194.667 383.733C178.533 384 176.4 384.4 173.733 386.933C169.6 390.8 169.6 398.533 173.733 402.4C176.4 404.933 178.533 405.333 194.667 405.6L212.667 406V416V426L173.333 426.4C135.2 426.667 134 426.8 131.067 429.6C126.933 433.467 126.933 441.2 131.067 445.067C134 447.867 135.2 448 173.333 448.267L212.667 448.667V458.667V468.667L194.667 469.067C178.533 469.333 176.4 469.733 173.733 472.267C169.6 476.133 169.6 483.867 173.733 487.733C176.4 490.267 178.533 490.667 194.667 490.933L212.667 491.333V501.333V511.333L173.333 511.733C135.2 512 134 512.133 131.067 514.933C126.933 518.8 126.933 526.533 131.067 530.4C134 533.2 135.2 533.333 173.333 533.6L212.667 534V544V554L194.667 554.4C178.533 554.667 176.4 555.067 173.733 557.6C169.6 561.467 169.6 569.2 173.733 573.067C176.4 575.6 178.533 576 194.667 576.267L212.667 576.667V586.667V596.667H117.333H22L21.6 310.667C21.4667 153.333 21.6 23.8667 22 22.9333C22.4 21.6 42.2667 21.3333 117.6 21.6L212.667 22V32Z" fill="white"/>
<path d="M280.267 24.4C257.867 46.8 256 49.0667 256 53.4667C256 59.6 260.4 64 266.8 64C270.8 64 272.933 62.4 284 51.3333C290.933 44.4 297.067 38.6667 297.6 38.6667C298.267 38.6667 298.667 160.4 298.667 309.333C298.667 458.267 298.267 580 297.6 580C297.067 580 290.933 574.267 284 567.333C272.8 556 270.933 554.667 266.533 554.667C260.4 554.667 256 559.067 256 565.467C256 569.6 258.133 572.267 280.4 594.4C302.667 616.667 305.067 618.667 309.333 618.667C313.6 618.667 316.133 616.667 338.4 594.267C360.8 571.867 362.667 569.6 362.667 565.2C362.667 559.067 358.267 554.667 351.867 554.667C347.867 554.667 345.733 556.267 334.667 567.333C327.733 574.267 321.6 580 321.067 580C320.4 580 320 458.267 320 309.333C320 160.4 320.4 38.6667 321.067 38.6667C321.6 38.6667 327.733 44.4 334.667 51.3333C345.867 62.6667 347.733 64 352.133 64C358.267 64 362.667 59.6 362.667 53.2C362.667 49.0667 360.533 46.4 338.267 24.2667C316 1.99999 313.6 -1.19209e-05 309.333 -1.19209e-05C305.067 -1.19209e-05 302.533 1.99999 280.267 24.4Z" fill="white"/>
</svg>
