<svg width="539" height="315" viewBox="0 0 539 315" fill="none" xmlns="http://www.w3.org/2000/svg">
<path d="M240.801 2.9386C237.467 7.60526 238.134 13.0719 242.401 17.0719C248.134 22.4052 249.334 25.6053 249.334 35.2053C249.334 43.6053 249.201 44.0052 246.134 44.0052C244.134 44.0052 241.601 45.6053 239.467 48.1386L236.001 52.2719V133.739V215.339L244.001 214.939C251.867 214.405 252.001 214.539 252.001 217.872V221.339H238.667H225.334V137.339C225.334 45.8719 225.467 46.8053 218.001 44.0052C215.734 43.0719 199.467 45.3386 159.734 52.1386C129.467 57.2053 84.134 64.8053 59.0673 68.9386C34.0007 73.0719 13.6007 76.8053 13.8673 77.0719C14.134 77.3386 29.8673 75.7386 48.8007 73.4719C162.134 60.1386 187.201 57.3386 188.401 57.7386C189.201 58.0052 184.401 59.0719 177.867 60.2719C153.467 64.8053 8.66733 93.4719 7.334 94.0053C6.66733 94.4053 8.40067 94.4053 11.334 94.0053C14.2673 93.6053 43.334 90.4053 76.0007 86.6719C108.667 82.9386 147.867 78.5386 163.201 76.6719C191.067 73.3386 200.801 72.9386 182.401 76.0053C177.067 76.9386 139.067 83.8719 98.0007 91.3386C56.934 98.9386 20.4007 105.472 16.6673 106.005C13.0673 106.539 9.06733 107.472 8.00067 108.139C6.534 109.072 6.934 109.205 9.334 108.672C11.2007 108.405 33.734 106.005 59.334 103.339C85.0673 100.805 121.067 97.2053 139.334 95.3386C191.867 90.0053 192.534 90.1386 148.001 98.0053C24.8007 119.605 8.00067 122.539 16.0007 122.005C30.8007 120.939 161.201 109.472 175.867 108.005C190.001 106.539 195.867 106.939 184.401 108.539C167.201 111.072 17.2007 134.805 12.0007 136.005C6.134 137.205 6.26733 137.205 14.0007 136.672C119.467 128.672 182.401 124.005 185.201 124.139C187.067 124.139 175.201 126.272 158.667 128.672C110.801 135.739 64.134 142.539 34.6673 146.805C7.46733 150.672 -1.99933 152.539 12.0007 151.339C19.0673 150.672 158.534 141.872 180.667 140.672L191.334 140.139L182.001 141.605C176.934 142.405 135.734 148.005 90.6673 154.005C45.6007 160.139 10.2673 165.205 12.134 165.205C15.8673 165.339 169.067 157.872 184.001 156.805C192.534 156.272 192.667 156.272 186.001 157.472C179.867 158.672 35.8673 176.139 15.6007 178.139C10.6673 178.672 6.80067 179.339 7.06733 179.605C7.334 179.872 47.734 178.539 96.6673 176.672C145.601 174.805 186.667 173.472 187.867 173.605C189.067 173.872 182.801 174.805 174.001 175.605C144.801 178.405 22.134 191.872 14.0007 193.205C7.334 194.272 8.534 194.405 22.0007 193.872C30.8007 193.605 64.6673 192.672 97.334 192.005C130.001 191.339 164.801 190.272 174.667 189.872C184.534 189.472 192.401 189.339 192.001 189.739C191.601 190.139 183.867 191.072 174.667 191.872C165.467 192.805 127.201 196.405 89.734 200.005C52.134 203.739 19.0673 206.672 16.4007 206.672C13.6007 206.672 10.4007 207.339 9.334 208.139C7.86733 209.072 8.934 209.205 13.334 208.805C16.6673 208.405 56.534 207.872 102.001 207.605C147.467 207.205 181.067 207.205 176.667 207.605C161.734 208.539 55.4673 214.672 27.734 216.272L0.000666667 217.739V228.805C0.000666667 240.939 -0.266 240.539 9.86733 242.005C14.934 242.805 16.0007 243.472 16.0007 245.872C16.0007 250.405 22.0007 262.005 26.0007 265.072C28.934 267.339 31.4673 268.005 37.8673 268.005C43.4673 268.005 47.734 268.805 51.334 270.672C55.334 272.672 59.2007 273.339 67.334 273.339C79.8673 273.339 85.334 270.805 88.934 263.339C91.4673 258.139 91.4673 258.139 101.601 260.139C108.667 261.605 109.201 261.872 112.134 268.272C116.001 276.405 123.467 283.472 130.667 285.339C133.601 286.139 140.534 286.672 145.867 286.539C154.267 286.272 156.134 286.672 159.867 289.472C163.734 292.405 165.867 292.672 180.267 293.072C200.534 293.739 204.267 292.939 210.667 287.205L215.734 282.539L260.267 291.472C284.667 296.272 306.801 300.539 309.334 300.939C312.401 301.472 316.267 303.872 320.934 308.139L327.867 314.672H343.334C360.401 314.672 364.001 313.605 369.867 306.672C371.734 304.405 374.267 299.605 375.601 296.005C378.267 288.539 378.134 288.539 390.667 291.339C396.401 292.672 407.867 293.205 424.801 293.339H450.401L452.001 297.339C454.267 302.805 461.734 309.072 467.201 310.005C469.734 310.539 477.467 310.672 484.534 310.405C494.801 310.139 497.867 309.472 500.934 307.205C506.267 303.339 510.534 296.405 511.467 290.539C512.267 285.739 512.934 285.205 519.467 282.805C523.334 281.339 528.001 279.739 529.734 279.339C532.801 278.539 533.067 277.472 536.001 256.272C539.867 228.805 539.201 222.939 532.267 215.872C529.467 213.205 526.534 210.805 525.467 210.539C524.001 210.005 524.001 209.339 525.201 207.072C527.201 203.205 527.067 194.405 525.067 191.605C524.134 190.405 520.001 188.272 516.001 186.939L508.667 184.405L508.001 170.539C507.334 155.605 505.734 151.472 499.334 147.205C497.467 146.005 485.467 141.872 472.534 138.005C459.734 134.139 448.934 130.672 448.534 130.272C448.134 129.872 445.734 121.872 443.201 112.405C440.801 103.072 438.667 95.3386 438.667 95.3386C438.667 95.3386 442.667 93.2053 447.467 90.6719L456.267 86.0053L455.601 79.8719C454.667 68.4053 446.267 61.4719 432.401 60.2719L425.334 59.7386V51.0719C425.334 41.8719 427.067 37.2053 432.534 32.1386C436.801 28.1386 437.334 20.2719 433.601 16.9386C424.534 8.80527 406.667 27.6053 406.667 45.0719V52.4052L397.067 51.6053C391.734 51.0719 362.134 49.4719 331.334 48.0052C300.534 46.4052 274.134 44.9386 272.534 44.5386C270.001 44.1386 269.601 42.9386 268.934 33.3386C268.134 20.4052 263.601 10.1386 256.267 4.00525C250.267 -0.92807 243.734 -1.32809 240.801 2.9386ZM253.601 10.2719C263.067 20.0052 262.667 14.4052 262.667 123.205C262.667 210.272 262.934 221.872 264.801 226.672L266.934 232.005H279.467C286.401 232.005 292.001 231.605 292.001 230.939C292.001 230.405 292.401 228.672 292.801 226.939C293.601 224.005 293.467 224.005 281.734 224.005C269.067 224.005 266.667 222.939 266.667 217.739C266.667 214.672 266.801 214.672 284.801 214.672H302.934L302.134 218.272C301.734 220.405 300.934 224.805 300.534 228.272L299.601 234.672H280.001H260.267L258.134 229.339C256.267 224.539 256.001 212.805 256.001 125.605C256.001 33.0719 255.734 27.0719 253.467 22.0052C252.134 19.0719 249.734 15.4719 248.134 14.1386C245.067 11.3386 244.267 5.33859 247.067 5.33859C248.001 5.33859 250.934 7.60526 253.601 10.2719ZM430.401 23.2053C430.667 24.5386 429.067 27.4719 426.934 29.8719C420.934 36.2719 420.001 38.9386 420.001 51.0719C420.001 57.2053 419.734 62.5386 419.334 62.9386C418.934 63.3386 417.067 63.3386 415.201 62.9386L411.734 62.2719L412.267 50.1386C412.667 39.7386 413.334 36.9386 416.401 31.7386C420.001 25.4719 426.267 19.7386 428.667 20.5386C429.467 20.6719 430.267 22.0052 430.401 23.2053ZM374.001 64.6719C436.667 67.0719 438.134 67.2053 442.667 70.8053L446.001 73.4719L436.001 72.8053C430.534 72.4053 400.267 71.0719 368.667 69.8719C326.934 68.2719 310.801 67.2053 309.334 65.8719C308.267 64.9386 305.201 63.6053 302.667 62.8053C298.801 61.7386 299.867 61.6053 308.667 62.1386C314.534 62.4053 344.001 63.6053 374.001 64.6719ZM293.601 64.8053C301.201 66.1386 305.867 67.7386 307.467 69.4719C308.667 70.8053 312.934 83.8719 316.801 98.2719C325.867 131.739 325.867 131.739 331.867 133.339C334.534 134.139 358.134 134.805 386.401 135.072C427.201 135.339 435.867 135.072 435.334 133.605C433.334 128.405 422.534 83.6053 423.201 83.0719C425.601 80.5386 428.001 86.4053 434.001 109.739L440.667 135.872L452.267 138.939C458.801 140.539 464.001 142.272 464.001 142.672C464.001 143.072 454.401 143.205 442.534 142.939C425.334 142.539 419.734 142.939 414.001 144.672C407.067 146.939 405.467 146.805 371.067 143.472C351.467 141.472 334.401 139.605 333.334 139.205C332.134 138.805 331.867 138.939 332.667 139.739C333.467 140.405 347.467 144.005 364.001 147.872C391.201 154.139 406.667 158.539 395.334 156.672C387.067 155.339 335.867 150.539 334.534 150.939C333.867 151.205 346.934 154.672 363.601 158.539C380.267 162.539 394.934 166.272 396.001 166.939C397.601 167.872 397.334 168.005 395.334 167.472C391.201 166.405 334.534 161.072 334.001 161.605C333.734 161.872 347.067 165.339 363.734 169.205C392.267 176.005 404.934 179.605 395.334 178.005C387.201 176.805 334.401 171.872 334.001 172.272C333.734 172.539 345.601 175.605 360.401 179.205C390.001 186.139 402.667 189.739 394.667 188.672C380.001 186.805 334.267 182.539 333.867 183.072C333.467 183.339 338.401 184.672 344.667 186.005C354.134 188.005 356.001 188.805 355.201 190.539C353.201 194.805 353.201 204.672 355.067 207.205C356.667 209.339 358.534 209.739 368.401 209.472C388.934 209.072 397.067 213.605 400.134 227.339L401.734 234.672H407.201H412.667V196.539V158.405L417.067 154.539L421.334 150.672H456.801H492.267L496.134 154.539L500.001 158.405V197.872V237.339H463.734C443.734 237.339 411.601 237.739 392.401 238.272C362.934 238.939 357.334 238.805 356.934 237.205C356.534 236.139 355.734 231.205 354.934 226.139C352.267 208.805 343.067 195.205 331.867 192.005C322.667 189.339 312.134 195.605 307.067 206.672L304.667 211.872L287.734 212.005H270.667V139.472V66.8053L273.601 64.8053C277.334 62.1386 279.201 62.1386 293.601 64.8053ZM383.734 74.2719C440.001 76.2719 450.001 77.0719 447.867 79.2053C447.467 79.6053 418.934 78.8053 384.534 77.3386C350.134 75.8719 320.001 74.6719 317.734 74.6719C314.667 74.6719 313.334 74.0053 313.334 72.6719C313.334 71.0719 314.401 70.6719 317.734 71.2053C320.001 71.6053 349.734 72.9386 383.734 74.2719ZM389.067 198.939C389.334 202.805 388.934 205.339 388.134 205.339C387.334 205.339 386.667 203.205 386.667 200.672V196.005H373.334C361.067 196.005 358.401 195.339 360.934 192.805C361.467 192.272 367.867 192.139 375.201 192.272L388.667 192.672L389.067 198.939ZM521.067 198.939C521.334 202.805 520.934 205.339 520.134 205.339C519.334 205.339 518.667 203.205 518.667 200.672C518.667 196.139 518.534 196.005 513.334 196.005C509.334 196.005 508.001 195.472 508.001 193.872C508.001 192.272 509.334 192.005 514.401 192.272L520.667 192.672L521.067 198.939ZM168.134 222.005C159.067 232.405 157.467 253.205 164.801 266.539C166.801 270.405 170.001 274.272 171.867 275.205C175.067 276.939 175.067 277.072 172.401 277.872C168.001 279.339 160.534 275.472 156.801 269.739C150.267 259.872 149.201 243.205 154.134 230.672C156.801 224.139 164.267 217.339 168.801 217.339H172.267L168.134 222.005ZM516.401 219.472C523.867 222.005 526.667 225.472 526.667 232.272V237.339H517.334H508.001V227.339C508.001 221.872 508.534 217.339 509.067 217.339C509.734 217.339 513.067 218.272 516.401 219.472ZM58.6673 220.672C58.6673 221.072 57.4673 222.805 56.0007 224.272C48.934 231.872 49.334 249.472 56.6673 256.805C60.2673 260.405 59.0673 262.005 54.4007 260.139C49.334 258.272 46.4007 252.405 45.6007 243.072C44.8007 233.072 47.734 224.939 53.2007 222.005C56.934 220.005 58.6673 219.605 58.6673 220.672ZM137.334 220.805C137.334 221.205 135.867 223.339 134.001 225.472C125.334 235.872 126.001 256.939 135.334 266.272L139.734 270.672H135.334C127.334 270.672 120.001 258.272 120.001 244.805C120.001 238.805 124.001 228.539 127.601 225.072C132.001 221.072 137.334 218.672 137.334 220.805ZM32.0007 226.939C28.0007 233.472 28.4007 244.805 32.6673 251.205C36.0007 256.139 36.0007 256.139 33.2007 255.739C27.0673 254.805 22.134 242.005 24.534 232.939C25.6007 228.672 30.4007 222.672 32.8007 222.672C34.2673 222.672 34.0007 223.605 32.0007 226.939ZM245.734 231.605C241.334 240.139 242.001 252.139 247.201 260.005C251.334 266.272 252.001 272.539 248.401 271.472C247.067 271.072 232.001 268.005 214.801 264.672C197.601 261.339 183.067 257.872 182.401 257.072C180.801 254.539 181.734 246.272 183.734 245.605C184.667 245.339 185.334 246.272 185.334 248.005C185.334 252.672 189.201 258.539 192.267 258.672C192.801 258.672 192.801 257.339 192.134 255.605C191.467 253.872 191.201 250.939 191.601 248.939C192.267 245.739 192.934 245.339 198.001 245.339C201.067 245.339 207.334 245.739 211.867 246.139C218.667 246.939 220.001 247.472 220.001 249.605C220.001 254.539 223.867 261.339 228.267 264.005C233.734 267.339 235.734 267.472 233.067 264.272C230.801 261.872 228.134 253.739 228.801 251.339C228.934 250.539 229.467 248.405 229.867 246.272C230.534 243.605 231.467 242.672 233.867 242.672C236.267 242.672 237.201 241.605 238.534 237.472C239.734 233.339 246.401 225.339 248.534 225.339C248.801 225.339 247.467 228.139 245.734 231.605ZM323.067 240.672C321.734 257.872 326.001 271.205 335.067 277.872C338.667 280.539 338.934 280.539 342.801 278.405C347.334 275.739 347.601 276.939 344.001 284.005C336.401 298.939 323.334 295.072 317.867 276.539C314.801 265.872 315.734 247.072 319.867 237.605C321.601 233.872 323.201 230.672 323.334 230.672C323.601 230.672 323.467 235.205 323.067 240.672ZM297.467 256.272C297.334 263.072 296.801 268.939 296.667 269.205C295.734 270.139 254.667 266.139 254.667 265.072C254.667 264.539 256.134 264.005 258.001 264.005C261.201 264.005 261.334 263.739 261.334 254.005V244.005H279.734H298.001L297.467 256.272ZM486.001 262.939C481.201 272.272 477.867 277.339 475.201 278.939C471.734 281.072 467.467 281.339 437.067 281.339C402.801 281.339 402.801 281.339 381.201 276.672C369.201 274.005 359.201 271.605 358.934 271.339C358.534 271.072 359.067 266.272 360.134 260.805L361.867 250.805L379.867 250.272C389.867 250.139 419.334 249.739 445.467 249.605L492.934 249.339L486.001 262.939ZM521.734 257.605C518.667 265.872 517.067 266.672 503.734 266.672H492.001L494.001 261.605C497.334 253.339 500.134 252.005 512.801 252.005H524.001L521.734 257.605Z" fill="#A020F0"/>
<path d="M284.401 77.6053L277.334 78.9386V106.805V134.672H281.067C283.334 134.672 286.001 135.872 287.467 137.472C288.801 139.072 291.867 141.205 294.001 142.139C297.867 143.872 297.867 143.872 290.001 144.005C280.134 144.272 283.467 145.472 300.801 148.139C312.534 149.872 312.534 150.005 306.667 150.939C303.334 151.339 296.534 151.872 291.334 152.005C280.267 152.272 282.801 153.472 300.801 156.139L312.667 158.005L306.001 158.805C302.401 159.339 295.467 159.872 290.667 160.005C280.267 160.272 283.067 161.472 300.801 164.139L312.667 165.872L305.334 166.805C301.334 167.339 294.401 167.872 290.001 168.005C282.001 168.272 282.001 168.272 287.334 169.472C290.267 170.139 297.201 171.472 302.667 172.405L312.667 174.139L297.334 175.472L282.001 176.672L298.001 179.339L314.001 182.005L298.001 183.339L282.001 184.672L296.134 187.072C309.601 189.339 310.534 189.339 315.201 187.205L320.001 184.805V163.472V142.005L313.601 138.005L307.334 134.005L313.067 133.605C317.734 133.205 318.667 132.805 318.134 130.939C317.734 129.739 314.667 118.139 311.201 105.339C307.867 92.5386 304.267 80.672 303.201 78.9386C301.067 75.6053 296.667 75.3386 284.401 77.6053ZM297.867 98.9386C300.534 103.072 304.401 124.539 303.334 129.205C302.934 131.339 301.334 134.139 300.001 135.339C297.601 137.472 297.201 137.472 292.134 134.539L286.667 131.472V115.872C286.667 103.339 287.067 99.7386 288.801 98.1386C291.734 95.072 295.601 95.472 297.867 98.9386Z" fill="#A020F0"/>
<path d="M452.001 153.339C450.134 153.872 444.001 154.405 438.267 154.539C428.267 154.672 423.067 156.005 421.067 159.205C420.534 160.005 420.001 175.472 420.001 193.605C420.001 224.939 420.134 226.805 422.667 229.339C425.201 231.872 427.067 232.005 458.534 232.005C491.467 232.005 491.867 232.005 493.867 229.072C496.801 224.805 497.067 161.872 494.134 157.872C492.534 155.739 490.001 155.205 478.401 154.539C470.801 154.005 462.534 153.339 460.001 152.939C457.467 152.539 453.867 152.672 452.001 153.339ZM465.734 157.205C468.001 159.472 465.601 162.539 461.067 163.339C452.267 164.939 445.201 158.939 452.401 156.005C455.734 154.539 463.734 155.205 465.734 157.205ZM432.267 164.939C434.401 166.939 434.667 169.605 434.667 195.072C434.667 219.339 434.401 223.472 432.401 225.605C431.201 226.939 428.934 228.005 427.467 228.005C424.934 227.872 424.934 227.739 427.067 226.539C429.067 225.339 429.334 222.405 429.334 195.739C429.334 169.205 429.067 166.139 427.067 164.539C424.801 162.805 424.801 162.805 427.201 162.672C428.667 162.672 430.934 163.605 432.267 164.939ZM446.667 165.339C449.201 167.872 449.334 169.739 449.334 195.339C449.334 220.939 449.201 222.805 446.667 225.339C445.201 226.805 442.667 228.005 441.067 228.005H438.134L441.067 225.872C444.001 223.872 444.001 223.339 444.001 195.339C444.001 167.339 444.001 166.805 441.067 164.805L438.134 162.672H441.067C442.667 162.672 445.201 163.872 446.667 165.339ZM474.667 165.339C477.201 167.872 477.334 169.739 477.334 195.339C477.334 220.939 477.201 222.805 474.667 225.339C473.201 226.805 470.667 228.005 469.067 228.005H466.134L469.067 225.872C472.001 223.872 472.001 223.339 472.001 195.739C472.001 171.339 471.734 167.205 469.734 165.072C467.734 162.805 467.734 162.672 469.734 162.672C471.067 162.672 473.201 163.872 474.667 165.339ZM488.267 164.939C490.401 166.939 490.667 169.605 490.667 195.072C490.667 219.339 490.401 223.472 488.401 225.605C487.201 226.939 484.934 228.005 483.467 228.005C480.934 227.872 480.934 227.739 483.067 226.539C485.067 225.339 485.334 222.405 485.334 195.739C485.334 169.205 485.067 166.139 483.067 164.539C480.801 162.805 480.801 162.805 483.201 162.672C484.667 162.672 486.934 163.605 488.267 164.939ZM462.667 194.539C462.667 226.005 462.267 228.005 455.601 228.005C452.934 227.872 452.934 227.739 455.067 226.539C457.067 225.339 457.334 222.405 457.334 196.005C457.334 169.339 457.601 166.805 459.734 166.272C460.934 165.872 462.134 165.605 462.401 165.472C462.534 165.472 462.667 178.539 462.667 194.539Z" fill="#A020F0"/>
<path d="M290.001 191.872L282.001 192.672L293.067 194.539C303.867 196.272 304.267 196.272 307.067 193.472L309.867 190.672L304.001 190.939C300.667 191.072 294.401 191.472 290.001 191.872Z" fill="#A020F0"/>
<path d="M289.334 199.872L280.667 200.672L288.534 201.739C292.934 202.405 297.201 203.205 298.134 203.605C299.067 203.872 300.401 202.939 301.334 201.472C302.534 199.072 302.401 198.672 300.401 198.939C299.067 199.072 294.134 199.472 289.334 199.872Z" fill="#A020F0"/>
<path d="M289.334 207.872L282.001 208.672L289.067 209.739C292.934 210.272 296.667 210.405 297.334 210.005C298.934 209.072 299.067 206.539 297.734 206.939C297.067 207.072 293.334 207.472 289.334 207.872Z" fill="#A020F0"/>
<path d="M377.734 254.272C371.601 254.805 371.334 255.339 373.201 260.405C375.734 267.205 377.867 268.005 392.134 268.005H405.334L403.334 262.939C402.134 260.272 400.401 257.205 399.334 256.139C397.334 254.139 387.334 253.205 377.734 254.272Z" fill="#A020F0"/>
<path d="M413.334 254.672C413.334 257.872 420.001 270.539 422.401 271.872C425.867 273.739 458.534 273.872 463.334 272.005C465.734 271.072 467.867 268.405 470.134 263.339C471.867 259.205 473.334 255.339 473.334 254.672C473.334 253.872 461.867 253.339 443.334 253.339C424.801 253.339 413.334 253.872 413.334 254.672Z" fill="#A020F0"/>
</svg>
