<svg width="800" height="800" viewBox="0 0 800 800" fill="none" xmlns="http://www.w3.org/2000/svg">
<path d="M582.693 238.212L615.01 162.886C630.544 126.679 626.872 85.428 605.191 52.5327C583.51 19.6375 547.047 0 507.651 0H292.349C252.953 0 216.489 19.6375 194.809 52.5311C173.128 85.4264 169.456 126.679 184.99 162.884L217.311 238.218C108.533 302.71 41.5468 419.59 41.5468 546.674C41.5468 639.778 77.0874 728.008 141.623 795.109C144.629 798.233 148.775 799.998 153.111 799.998H646.891C651.225 799.998 655.372 798.233 658.378 795.109C722.914 728.006 758.455 639.777 758.455 546.674C758.453 419.748 691.424 302.699 582.693 238.212ZM214.279 150.318C202.984 123.99 205.653 93.992 221.42 70.0717C237.185 46.153 263.703 31.8718 292.349 31.8718H507.651C536.299 31.8718 562.815 46.153 578.58 70.0717C594.349 93.992 597.016 123.99 585.721 150.317L518.097 307.935C516.596 311.435 513.163 313.696 509.357 313.696C508.079 313.696 506.822 313.435 505.624 312.92C500.81 310.854 498.574 305.257 500.64 300.446L568.261 142.828C577.163 122.084 575.143 99.3764 562.719 80.5233C550.296 61.6764 530.222 50.8671 507.651 50.8671H292.349C269.778 50.8671 249.704 61.6764 237.279 80.5248C224.857 99.3764 222.836 122.083 231.739 142.826L299.36 300.445C301.426 305.259 299.19 310.854 294.379 312.92C289.565 314.982 283.968 312.749 281.904 307.937L214.279 150.318ZM399.999 188.221C363.401 188.221 327.435 193.707 292.885 204.518L261.028 130.262C256.36 119.386 257.378 107.951 263.89 98.0686C270.406 88.1858 280.514 82.742 292.349 82.742H507.651C519.488 82.742 529.594 88.1858 536.108 98.0654C542.621 107.951 543.64 119.384 538.971 130.262L507.112 204.523C472.558 193.712 436.588 188.221 399.999 188.221ZM640.013 768.127H159.987C104.108 707.628 73.4186 629.257 73.4186 546.675C73.4186 432.287 132.986 326.967 229.989 267.778L252.61 320.506C261.603 341.465 285.973 351.207 306.943 342.215C327.904 333.221 337.645 308.848 328.649 287.884L305.523 233.979C336.034 224.77 367.74 220.095 399.998 220.095C432.248 220.095 463.963 224.759 494.476 233.967L471.344 287.884C462.352 308.846 472.091 333.22 493.052 342.213C498.246 344.442 503.729 345.571 509.354 345.571H509.355C525.922 345.57 540.852 335.731 547.383 320.506L570.004 267.781C666.967 326.971 726.577 432.43 726.577 546.675C726.581 629.257 695.891 707.627 640.013 768.127Z" fill="white"/>
<path d="M447.809 720.317H183.292C174.492 720.317 167.356 727.452 167.356 736.253C167.356 745.055 174.492 752.189 183.292 752.189H447.809C456.608 752.189 463.744 745.055 463.744 736.253C463.744 727.452 456.608 720.317 447.809 720.317Z" fill="white"/>
<path d="M519.522 720.317H503.61C494.81 720.317 487.674 727.452 487.674 736.253C487.674 745.055 494.81 752.189 503.61 752.189H519.522C528.322 752.189 535.458 745.055 535.458 736.253C535.458 727.452 528.322 720.317 519.522 720.317Z" fill="white"/>
</svg>
