<svg width="619" height="363" viewBox="0 0 619 363" fill="none" xmlns="http://www.w3.org/2000/svg">
<path d="M615.6 2.93333L612.533 0L309.2 0L5.73333 0L2.93333 3.06667L0 6.13333L0 117.467L0 228.933L3.06667 231.733L6.13333 234.667L309.467 234.667L612.933 234.667L615.733 231.6L618.667 228.533L618.667 117.2V5.73333L615.6 2.93333ZM586.667 212.667H576.667L576.267 194.667C576 178.533 575.6 176.4 573.067 173.733C571.067 171.6 568.667 170.667 565.333 170.667C562 170.667 559.6 171.6 557.6 173.733C555.067 176.4 554.667 178.533 554.4 194.667L554 212.667H544L534 212.667L533.6 173.333C533.333 135.2 533.2 134 530.4 131.067C526.533 126.933 518.8 126.933 514.933 131.067C512.133 134 512 135.2 511.733 173.333L511.333 212.667H501.333H491.333L490.933 194.667C490.667 178.533 490.267 176.4 487.733 173.733C483.867 169.6 476.133 169.6 472.267 173.733C469.733 176.4 469.333 178.533 469.067 194.667L468.667 212.667H458.667H448.667L448.267 173.333C448 135.2 447.867 134 445.067 131.067C441.2 126.933 433.467 126.933 429.6 131.067C426.8 134 426.667 135.2 426.4 173.333L426 212.667H416H406L405.6 194.667C405.333 178.533 404.933 176.4 402.4 173.733C398.533 169.6 390.8 169.6 386.933 173.733C384.4 176.4 384 178.533 383.733 194.667L383.333 212.667H373.333H363.333L362.933 173.333C362.667 135.2 362.533 134 359.733 131.067C357.733 128.933 355.333 128 352 128C348.667 128 346.267 128.933 344.267 131.067C341.467 134 341.333 135.2 341.067 173.333L340.667 212.667H330.667H320.667L320.267 194.667C320 178.533 319.6 176.4 317.067 173.733C313.2 169.6 305.467 169.6 301.6 173.733C299.067 176.4 298.667 178.533 298.4 194.667L298 212.667H288H278L277.6 173.333C277.333 135.2 277.2 134 274.4 131.067C270.533 126.933 262.8 126.933 258.933 131.067C256.133 134 256 135.2 255.733 173.333L255.333 212.667L245.333 212.667H235.333L234.933 194.667C234.667 178.533 234.267 176.4 231.733 173.733C227.867 169.6 220.133 169.6 216.267 173.733C213.733 176.4 213.333 178.533 213.067 194.667L212.667 212.667H202.667H192.667L192.267 173.333C192 135.2 191.867 134 189.067 131.067C185.2 126.933 177.467 126.933 173.6 131.067C170.8 134 170.667 135.2 170.4 173.333L170 212.667H160H150L149.6 194.667C149.333 178.533 148.933 176.4 146.4 173.733C142.533 169.6 134.8 169.6 130.933 173.733C128.4 176.4 128 178.533 127.733 194.667L127.333 212.667H117.333H107.333L106.933 173.333C106.667 135.2 106.533 134 103.733 131.067C99.8667 126.933 92.1333 126.933 88.2667 131.067C85.4667 134 85.3333 135.2 85.0667 173.333L84.6667 212.667H74.6667H64.6667L64.2667 194.667C64 178.533 63.6 176.4 61.0667 173.733C57.2 169.6 49.4667 169.6 45.6 173.733C43.0667 176.4 42.6667 178.533 42.4 194.667L42 212.667H32H22L22 117.333L22 22L308 21.6C465.333 21.4667 594.8 21.6 595.733 22C597.067 22.4 597.333 42.2667 597.067 117.6L596.667 212.667H586.667Z" fill="white"/>
<path d="M594.267 280.267C571.867 257.867 569.6 256 565.2 256C559.067 256 554.667 260.4 554.667 266.8C554.667 270.8 556.267 272.933 567.333 284C574.267 290.933 580 297.067 580 297.6C580 298.267 458.267 298.667 309.333 298.667C160.4 298.667 38.6667 298.267 38.6667 297.6C38.6667 297.067 44.4 290.933 51.3333 284C62.6667 272.8 64 270.933 64 266.533C64 260.4 59.6 256 53.2 256C49.0667 256 46.4 258.133 24.2667 280.4C2 302.667 0 305.067 0 309.333C0 313.6 2 316.133 24.4 338.4C46.8 360.8 49.0667 362.667 53.4667 362.667C59.6 362.667 64 358.267 64 351.867C64 347.867 62.4 345.733 51.3333 334.667C44.4 327.733 38.6667 321.6 38.6667 321.067C38.6667 320.4 160.4 320 309.333 320C458.267 320 580 320.4 580 321.067C580 321.6 574.267 327.733 567.333 334.667C556 345.867 554.667 347.733 554.667 352.133C554.667 358.267 559.067 362.667 565.467 362.667C569.6 362.667 572.267 360.533 594.4 338.267C616.667 316 618.667 313.6 618.667 309.333C618.667 305.067 616.667 302.533 594.267 280.267Z" fill="white"/>
</svg>
